<?xml version="1.0" encoding="UTF-8" standalone="no"?>
<!-- Generator: Adobe Illustrator 21.1.0, SVG Export Plug-In . SVG Version: 6.00 Build 0)  -->

<svg
   version="1.1"
   id="Layer_1"
   x="0px"
   y="0px"
   viewBox="0 0 338.25 392.39999"
   xml:space="preserve"
   sodipodi:docname="logo_ARCore.svg"
   width="338.25"
   height="392.39999"
   inkscape:version="1.2.1 (9c6d41e, 2022-07-14)"
   xmlns:inkscape="http://www.inkscape.org/namespaces/inkscape"
   xmlns:sodipodi="http://sodipodi.sourceforge.net/DTD/sodipodi-0.dtd"
   xmlns="http://www.w3.org/2000/svg"
   xmlns:svg="http://www.w3.org/2000/svg"><defs
   id="defs160" /><sodipodi:namedview
   id="namedview158"
   pagecolor="#ffffff"
   bordercolor="#000000"
   borderopacity="0.25"
   inkscape:showpageshadow="2"
   inkscape:pageopacity="0.0"
   inkscape:pagecheckerboard="0"
   inkscape:deskcolor="#d1d1d1"
   showgrid="false"
   inkscape:zoom="0.30729167"
   inkscape:cx="185.49153"
   inkscape:cy="206.64407"
   inkscape:window-width="1434"
   inkscape:window-height="739"
   inkscape:window-x="0"
   inkscape:window-y="38"
   inkscape:window-maximized="0"
   inkscape:current-layer="Layer_1" />
<style
   type="text/css"
   id="style128">
	.st0{fill:#558B2F;}
	.st1{fill:#E1BEE7;}
	.st2{fill:#FAFAFA;}
	.st3{fill:#7B1FA2;}
	.st4{fill:#4A148C;}
	.st5{fill:#BA68C8;}
	.st6{fill:url(#SVGID_1_);}
</style>
<g
   id="g155"
   transform="translate(-342.9,-187.8)">
	<polygon
   class="st0"
   points=""
   id="polygon130" />
	<path
   class="st1"
   d="m 516.3,308.2 c -28.1,0 -52.5,15.3 -65.7,37.9 l 51.7,29.8 c 8.7,5 19.3,5 28,0 l 51.6,-29.8 c -13,-22.7 -37.5,-37.9 -65.6,-37.9 z"
   id="path132" />
	<path
   class="st2"
   d="m 502.3,375.9 -51.7,-29.8 c -6.5,11.2 -10.2,24.1 -10.2,37.9 0,41.9 33.9,75.8 75.8,75.8 41.9,0 75.8,-33.9 75.8,-75.8 0,-13.8 -3.7,-26.8 -10.2,-37.9 l -51.6,29.8 c -8.5,5 -19.2,5 -27.9,0 z"
   id="path134" />
	<g
   id="g140">
		<path
   class="st3"
   d="M 676.6,476.6 582,421.9 c -13.1,22.7 -37.6,37.9 -65.7,37.9 v 120.3 c 4.5,0 8.9,-1.2 12.9,-3.5 l 147.5,-85.2 c 0,0 0.1,0 0.1,-0.1 5.7,-3.2 5.5,-11.5 -0.2,-14.7 z"
   id="path136" />
		<path
   class="st4"
   d="m 516.3,459.8 c -28.1,0 -52.6,-15.2 -65.7,-37.9 l -104.2,60.2 c 2.2,3.9 5.5,7.1 9.4,9.4 l 147.5,85.2 c 4,2.3 8.4,3.5 12.9,3.5 V 459.8 Z"
   id="path138" />
	</g>
	<path
   class="st3"
   d="m 516.3,308.2 v 0 -120.3 c -4.5,0 -8.9,1.2 -12.9,3.5 l -147.5,85.2 c -4,2.3 -7.2,5.6 -9.4,9.4 l 104.2,60.2 c 13.1,-22.8 37.6,-38 65.6,-38 z"
   id="path142" />
	<path
   class="st4"
   d="m 676.8,276.6 c 0,0 -0.1,0 -0.1,-0.1 L 529.2,191.3 c -4,-2.3 -8.4,-3.5 -12.9,-3.5 v 120.3 c 28.1,0 52.6,15.2 65.7,37.9 l 94.6,-54.6 c 5.7,-3.2 5.9,-11.5 0.2,-14.8 z"
   id="path144" />
	<path
   class="st5"
   d="m 440.5,384 c 0,-13.8 3.7,-26.8 10.1,-37.9 L 346.4,285.9 c -2.2,3.9 -3.5,8.3 -3.5,12.9 v 170.3 c 0,4.6 1.2,9 3.5,12.9 l 104.2,-60.2 c -6.4,-11 -10.1,-24 -10.1,-37.8 z"
   id="path146" />
	<linearGradient
   id="SVGID_1_"
   gradientUnits="userSpaceOnUse"
   x1="642.4054"
   y1="526.23389"
   x2="526.97449"
   y2="410.80301">
		<stop
   offset="0"
   style="stop-color:#1A237E;stop-opacity:1.000000e-02"
   id="stop148" />
		<stop
   offset="1"
   style="stop-color:#1A237E;stop-opacity:0.3"
   id="stop150" />
	</linearGradient>
	<path
   class="st6"
   d="m 582,421.9 c -13.1,22.7 -37.6,37.9 -65.6,37.9 -11.2,0 -21.9,-2.5 -31.5,-6.8 v 0 l 129.3,74.7 62.6,-36.1 c 5.8,-3.3 5.8,-11.7 0,-15 z"
   id="path153"
   style="fill:url(#SVGID_1_)" />
</g>
</svg>
